<svg version="1.1" id="Layer_1" xmlns="http://www.w3.org/2000/svg" xmlns:xlink="http://www.w3.org/1999/xlink" x="0px" y="0px"
	 width="100%" viewBox="0 0 512 512" enable-background="new 0 0 512 512" xml:space="preserve">
<path fill="#FFFFFF" opacity="1.000000" stroke="none" fill-rule="evenodd"
	d="
M178.714279,378.749481
	C184.013199,380.773224 189.538467,382.445862 195.132278,382.497620
	C221.629257,382.742920 248.129761,382.593262 274.628937,382.636902
	C277.520813,382.641693 279.557434,381.582825 281.493622,379.368774
	C283.990509,376.513580 286.648926,373.723389 290.110718,371.866180
	C304.405304,364.197235 320.249847,366.914673 331.230286,379.150665
	C332.786377,380.884705 334.006409,382.106903 336.622284,381.559174
	C357.579651,377.170898 375.615326,355.132874 375.620209,333.708313
	C375.629303,293.542664 375.217010,253.371521 375.757874,213.213150
	C376.148560,184.202316 352.451782,162.639877 324.747467,162.471268
	C283.083405,162.217667 241.416168,162.505569 199.751419,162.316879
	C192.798172,162.285416 186.202362,163.324066 179.691895,165.479202
	C158.468216,172.504715 145.749969,190.050262 145.506607,211.886658
	C145.062759,251.711990 145.297043,291.546143 145.460770,331.375763
	C145.488052,338.013947 147.120102,344.523560 149.918076,350.641785
	C155.777115,363.453430 165.279907,372.587402 178.714279,378.749481
M270.620483,84.500221
	C270.623657,79.168144 270.818268,73.826820 270.561493,68.507294
	C270.395325,65.064476 271.785431,62.991253 274.518433,61.128780
	C285.536316,53.620296 288.839844,44.826595 285.693909,32.061619
	C283.003021,21.142946 272.112518,12.519114 260.886719,12.417564
	C249.175278,12.311623 238.654739,20.020006 235.381317,31.105328
	C231.820709,43.163212 236.085693,55.085110 246.468765,61.442036
	C248.951569,62.962112 250.472824,64.452576 250.427567,67.646240
	C250.266983,78.975296 250.263596,90.309982 250.446457,101.638573
	C250.507629,105.428139 248.976028,106.531158 245.425735,106.483505
	C234.762817,106.340416 224.096176,106.341515 213.432327,106.436302
	C201.248474,106.544594 189.176605,108.182350 177.558090,111.636520
	C149.345901,120.023994 127.114243,136.528458 112.228783,162.217056
	C103.119019,177.938217 96.914970,194.674332 96.430313,213.083389
	C96.335114,216.699310 94.704712,217.809006 91.508461,218.636185
	C81.728218,221.167282 76.395737,228.254028 76.383263,238.232834
	C76.357437,258.896027 76.374062,279.559296 76.378609,300.222534
	C76.380661,309.543640 80.581131,317.509766 89.253387,319.473572
	C98.245804,321.509918 98.774513,327.418365 100.237656,333.826813
	C100.532310,335.117371 100.609047,336.465149 100.980125,337.729675
	C108.250710,362.505035 121.820450,383.350372 141.498230,399.870087
	C155.597229,411.706268 171.508881,420.298615 189.938843,424.210419
	C198.455750,426.018097 207.017822,426.252014 215.511200,427.556061
	C219.340286,428.143921 223.121689,426.995300 226.774536,425.929504
	C233.102173,424.083221 237.329544,417.652649 236.566467,411.445953
	C235.794586,405.167664 229.777725,399.578064 223.254654,399.425873
	C213.621292,399.201111 203.914261,400.012421 194.396805,398.095154
	C172.461334,393.676331 155.574768,381.604736 142.976608,363.335358
	C132.469833,348.098877 127.604309,331.073761 127.668465,312.663727
	C127.708435,301.191956 128.177063,289.677734 127.955948,278.251923
	C127.601494,259.935425 127.528961,241.617203 127.900078,223.323700
	C128.019226,217.450516 127.995338,211.379028 129.096085,205.482346
	C132.566452,186.891678 141.374619,171.195663 155.290527,158.519745
	C169.176987,145.870651 185.563492,138.783264 204.515900,138.705933
	C242.175461,138.552246 279.835968,138.623184 317.496094,138.626572
	C332.638275,138.627930 346.134644,143.981247 358.420441,152.259201
	C368.705322,159.188965 376.760681,168.347824 382.795807,179.340546
	C388.621399,189.951569 393.460815,200.843689 393.295349,213.154068
	C393.137665,224.885208 394.130127,236.585037 393.516541,248.340363
	C393.047150,257.333679 393.889038,266.390869 394.024872,275.421509
	C394.203156,287.275421 394.139374,299.134003 394.414429,310.985107
	C394.588287,318.474579 398.870392,322.418518 406.434326,322.610504
	C411.591614,322.741394 416.748932,322.916901 421.907135,322.957794
	C438.156616,323.086731 445.622894,315.587799 445.623932,299.209991
	C445.625214,279.046661 445.580505,258.883148 445.660065,238.720169
	C445.675720,234.752045 444.608856,231.282471 442.680145,227.841644
	C439.854156,222.800110 435.381775,220.304062 430.153381,218.680038
	C427.921143,217.986679 425.740082,217.388870 425.624176,214.259872
	C425.049164,198.737686 420.377991,184.308487 413.834045,170.357422
	C405.305664,152.175629 392.903198,137.301834 376.159363,126.212868
	C354.861511,112.107895 331.002655,106.775078 305.814392,106.432854
	C295.652466,106.294785 285.484955,106.402145 275.322510,106.559700
	C271.987000,106.611412 270.446014,105.566811 270.576538,101.995277
	C270.777222,96.503662 270.623657,90.999092 270.620483,84.500221
M283.376038,423.499207
	C283.376404,427.997681 283.455048,432.497772 283.362488,436.994324
	C283.080566,450.690247 291.396759,461.479797 304.112427,462.131653
	C315.421692,462.711395 326.706299,456.765381 328.542297,445.207031
	C330.905823,430.327728 329.818939,415.284607 329.343170,400.357391
	C328.985046,389.121460 319.384186,380.069641 309.350525,379.409027
	C295.886292,378.522552 287.285034,384.641418 284.222046,397.628418
	C282.288940,405.824799 283.806702,414.211273 283.376038,423.499207
M290.637787,483.737946
	C291.096313,483.935364 291.538544,484.193970 292.015839,484.321014
	C299.951721,486.433136 299.953003,486.429443 300.387421,494.279114
	C300.405762,494.611328 300.395752,494.945465 300.422455,495.276794
	C300.733124,499.131073 303.318573,501.113525 306.687866,501.098907
	C310.020660,501.084381 312.777344,499.382935 312.646545,495.219543
	C312.584290,493.237732 312.641296,491.233002 312.876434,489.266418
	C313.103485,487.367035 313.916443,486.061554 316.185028,485.578033
	C325.142151,483.668945 332.881561,479.346893 339.629761,473.170654
	C351.332184,462.460144 354.695435,448.587738 354.495239,433.486511
	C354.437103,429.101837 350.919952,426.088684 346.977814,426.524048
	C342.750397,426.990997 340.556732,429.632233 340.398865,433.884644
	C340.330994,435.713135 340.473175,437.552368 340.351471,439.375458
	C338.953979,460.312347 325.846741,472.140747 307.070435,473.152863
	C291.508728,473.991699 277.151306,462.024048 273.655365,447.180664
	C272.567810,442.562988 272.796051,437.952484 272.579529,433.321960
	C272.381897,429.095520 269.581360,426.868317 265.830475,426.635803
	C261.954712,426.395569 258.960510,428.691132 258.555725,432.708160
	C258.176239,436.474426 258.243866,440.392365 258.830292,444.131348
	C261.793091,463.021606 271.927795,476.378601 290.637787,483.737946
M303.361786,318.199860
	C304.134979,327.642731 296.989258,334.132172 287.218445,334.293793
	C269.740784,334.582855 252.247543,334.708771 234.775055,334.297882
	C219.224396,333.932190 215.623123,321.755219 220.354507,312.377594
	C222.556213,308.013824 226.341080,305.678009 231.215347,305.658691
	C250.695236,305.581451 270.175964,305.563629 289.655640,305.664825
	C296.458496,305.700165 301.822296,310.640381 303.361786,318.199860
M224.498108,243.873077
	C227.755203,254.924774 223.466431,263.762451 213.753281,266.705933
	C204.676697,269.456512 195.324493,264.255585 192.308487,254.780136
	C189.384201,245.592850 196.969955,235.084412 206.600388,234.574615
	C214.347336,234.164505 220.798126,235.810913 224.498108,243.873077
M321.049469,264.911377
	C311.889954,269.157684 305.069458,267.978760 299.192749,261.266235
	C294.498474,255.904297 294.376556,249.594330 296.834961,243.516418
	C299.268402,237.500168 304.283875,235.087234 310.997559,234.453751
	C325.749664,233.061737 333.549438,247.947861 326.992767,259.254425
	C325.573975,261.700989 323.493774,263.177643 321.049469,264.911377
z"/>
</svg>
