<svg width="32" height="32" viewBox="0 0 16 16" xmlns="http://www.w3.org/2000/svg" fill="#3fa7ff"><rect width="16" height="16" rx="3" fill="#1e1e1e"/><path d="M8 10.5c.663 0 1.299-.263 1.768-.732A2.49 2.49 0 0010.5 8V3.5c0-.663-.263-1.299-.732-1.768A2.49 2.49 0 008 1c-.663 0-1.299.263-1.768.732A2.49 2.49 0 005.5 3.5V8c0 .663.263 1.299.732 1.768.469.469 1.105.732 1.768.732zM6.5 3.5c0-.398.158-.779.439-1.06A1.5 1.5 0 018 2c.398 0 .779.158 1.061.44.28.28.439.661.439 1.06V8c0 .398-.158.779-.44 1.061A1.5 1.5 0 018 9.5c-.398 0-.779-.158-1.061-.44A1.5 1.5 0 016.5 8V3.5zM8.5 12.472V14h2v1h-5v-1h2v-1.528a4.49 4.49 0 01-2.854-1.472A4.49 4.49 0 013.5 8h1c0 .928.369 1.819 1.025 2.475A3.49 3.49 0 008 11.5c.928 0 1.819-.369 2.475-1.025A3.49 3.49 0 0011.5 8h1c0 1.106-.408 2.174-1.146 2.999a4.49 4.49 0 01-2.854 1.473z" fill="#3fa7ff"/></svg>
